HIERARCHY
ROOT Hips
{
    OFFSET 10.676104545593262 63.837493896484375 -15.733186721801758
    CHANNELS 6 Xposition Yposition Zposition Zrotation Xrotation Yrotation
    JOINT RightUpLeg
    {
        OFFSET -10.676104545593262 0.0 0.0
        CHANNELS 3 Zrotation Xrotation Yrotation
        JOINT RightLeg
        {
            OFFSET 0.0 -24.50452423095703 0.0
            CHANNELS 3 Zrotation Xrotation Yrotation
            JOINT RightFoot
            {
                OFFSET 0.0 -39.332969665527344 0.0
                CHANNELS 3 Zrotation Xrotation Yrotation
                End Site
                {
                    OFFSET 0.0 0.0 15.733186721801758
                }
            }
        }
    }
    JOINT LeftUpLeg
    {
        OFFSET 10.676104545593262 0.0 0.0
        CHANNELS 3 Zrotation Xrotation Yrotation
        JOINT LeftLeg
        {
            OFFSET 0.0 -24.50452423095703 0.0
            CHANNELS 3 Zrotation Xrotation Yrotation
            JOINT LeftFoot
            {
                OFFSET 0.0 -39.332969665527344 0.0
                CHANNELS 3 Zrotation Xrotation Yrotation
                End Site
                {
                    OFFSET 0.0 0.0 15.733186721801758
                }
            }
        }
    }
    JOINT Spine
    {
        OFFSET 0.0 19.17461585998535 0.0
        CHANNELS 3 Zrotation Xrotation Yrotation
        JOINT Spine3
        {
            OFFSET 0.0 23.550626754760742 0.0
            CHANNELS 3 Zrotation Xrotation Yrotation
            JOINT Neck
            {
                OFFSET 0.0 8.998724937438965 0.0
                CHANNELS 3 Zrotation Xrotation Yrotation
                End Site
                {
                    OFFSET 0.0 3.599490165710449 0.0
                }
            }
            JOINT LeftArm
            {
                OFFSET 11.515876770019531 0.0 0.0
                CHANNELS 3 Zrotation Xrotation Yrotation
                JOINT LeftForeArm
                {
                    OFFSET 23.326427459716797 0.0 0.0
                    CHANNELS 3 Zrotation Xrotation Yrotation
                    JOINT LeftHand
                    {
                        OFFSET 18.555707931518555 0.0 0.0
                        CHANNELS 3 Zrotation Xrotation Yrotation
                        End Site
                        {
                            OFFSET 7.422283172607422 0.0 0.0
                        }
                    }
                }
            }
            JOINT RightArm
            {
                OFFSET -11.515876770019531 0.0 0.0
                CHANNELS 3 Zrotation Xrotation Yrotation
                JOINT RightForeArm
                {
                    OFFSET -23.326427459716797 0.0 0.0
                    CHANNELS 3 Zrotation Xrotation Yrotation
                    JOINT RightHand
                    {
                        OFFSET -18.555707931518555 0.0 0.0
                        CHANNELS 3 Zrotation Xrotation Yrotation
                        End Site
                        {
                            OFFSET -7.422283172607422 0.0 0.0
                        }
                    }
                }
            }
        }
    }
}
MOTION
Frames: 7
Frame Time: 0.03333333333333333
0.00036703344085253775 44.77911376953125 -0.0013190070167183876 2.3295076243150756 -2.7621592148782437 -12.106231681281361 -61.85662770032537 -12.831727075098213 -22.985662655947586 2.6183293426902807 49.73669548474153 49.73888430019731 -3.1805546814635176e-15 0.0 0.0 56.47790806201125 -20.167980379929592 27.085775539316046 3.536633636681781 39.466014820507155 -41.85708011562086 -1.6552148617688095e-32 -2.3854160110976368e-15 -7.95138670365879e-16 3.713374318581651 24.59428219578071 -1.3442998264276516 -1.2022330448717984e-06 -5.260516685825597e-07 2.3753471949459204 -2.0110982226833745 2.7011618562734743 173.05723709651593 136.06050150953712 -46.577034213038246 -136.7123769337178 -1.1690474805741414e-06 -9.408372508404992e-08 18.633388009527636 3.1805546814635164e-15 6.3611093629270335e-15 6.3611093629270335e-15 -142.0795453373418 -39.05309682302569 136.60334636606174 4.405200613780542e-06 5.494830388128973e-06 -22.46689823115504 -6.361109362927033e-15 0.0 0.0
0.0003189584822393954 44.779052734375 -0.0013301705475896597 2.37328580207461 -2.0758461037345772 -12.349811750679594 -62.4404042296206 -15.262246516976282 -27.121408572329912 -2.6332309926170425 51.55667290930458 55.52863468023656 0.0 0.0 0.0 57.81298538912367 -21.941351797672187 30.387749163726173 5.991112628990261 41.238347177113496 -45.933545351765005 0.0 -1.5902773407317584e-15 0.0 3.6007577053008624 24.960914936973605 -1.3777753017062653 -7.324442014831813e-07 1.427087270757331e-06 2.5342614795003766 -2.170600497588112 3.048038689131341 173.48787966718257 132.76115063600005 -43.11299316306892 -139.11704308934506 1.876262358121833e-06 -3.943311191012858e-06 19.191327732505304 -3.1805546814635168e-15 6.3611093629270335e-15 6.3611093629270335e-15 -142.99648632377765 -39.447299319931936 135.49725750395282 -1.2298149360532365e-06 -5.7040253911433885e-06 -22.380022540040898 -1.5902773407317582e-15 -6.361109362927033e-15 -8.827812596100317e-32
0.0003419624699745327 44.77912902832031 -0.0013416442088782787 2.617684163969167 -1.7776631935297509 -13.057464101374805 -63.42008473065524 -15.456062361987545 -28.151183022140977 -1.7909418746321273 51.15705687547298 55.029654500136814 -8.827812596100317e-32 -6.361109362927033e-15 -1.5902773407317582e-15 58.01744337195094 -20.697055739832706 29.44882313376971 4.378162948476159 40.65665962872395 -44.916806279294555 6.3611093629270335e-15 1.5902773407317582e-15 -3.1805546814635168e-15 3.4081659621562816 24.99489104172181 -1.4058005340546635 4.878308797692635e-07 3.131179847414838e-07 2.441066234758258 -2.388470589726942 3.2937153365007488 174.09474624347862 131.3840250172374 -41.66491352245195 -140.92466295497417 3.6728439164316377e-06 1.5498100295916578e-06 19.943589637227404 0.0 0.0 -6.3611093629270335e-15 -141.0156012094943 -38.80006746339543 137.0596966475089 -2.4157068987249275e-06 -2.4230612847404426e-06 -23.336389682364292 -2.385416011097637e-15 1.3241718894150476e-31 -6.361109362927033e-15
0.0003965834330301732 44.77926254272461 -0.0013407720252871513 2.3552241070566478 -1.2014045417467847 -12.607724552095112 -62.89494180133131 -14.173500453986254 -26.42699799818228 0.33371455841779335 49.3349913886369 52.830803223609266 0.0 0.0 0.0 58.694794514042876 -20.97581187115387 29.67445881288124 5.406253396748954 40.61808635601154 -45.79078638079496 0.0 0.0 0.0 3.992003891533064 24.312094745620392 -1.2924817126757056 2.556233381105508e-07 -1.6722014377399092e-06 1.8995782160473518 -2.7483513836114772 3.440890821200118 173.59536575331745 133.85210647106055 -42.42721695713926 -137.75305147260272 -1.9993120146155276e-06 -1.526913888175967e-06 18.0750064038815 0.0 0.0 0.0 -147.90988265603897 -41.06515198073888 130.8898643920238 -1.7723262524600046e-06 -4.320836582314239e-06 -21.04933880497101 7.95138670365879e-15 0.0 0.0
0.0003702644316945225 44.779273986816406 -0.0013509842101484537 1.9220081013607218 -1.2470782557948816 -12.190957010571623 -62.88031512455213 -15.072259787503741 -28.15834211511781 -2.1552885466330154 49.86894843076283 55.68854912480515 0.0 6.361109362927035e-15 0.0 59.4589459927512 -21.605943052235027 30.796587342499794 5.605911604364578 41.19423784090245 -46.37727788630372 6.361109362927033e-15 -7.951386703658792e-16 -7.95138670365879e-16 4.938286455548571 24.882815719767528 -1.5801169496656224 -4.262361954177136e-08 1.6435533838186082e-06 2.151173665118093 -2.8977690629205144 3.585232979696671 173.59078692508928 132.99795479872103 -42.21992575599976 -137.3603074325889 9.494528785902842e-06 3.359632929965025e-06 17.632426725523548 0.0 0.0 0.0 -147.57467860120974 -39.74076136891062 130.9538866266718 -3.5639162008915244e-06 8.095484414582549e-08 -21.35991177100346 -7.951386703658792e-15 0.0 0.0
0.0004345182387623936 44.77918243408203 -0.0012997894082218409 2.2179814423949393 -1.2606074542434944 -13.394917766473203 -63.46732508590439 -15.995701768317538 -29.658918204405225 -4.093157011151491 49.80178478447547 57.45124269424406 0.0 0.0 0.0 58.88611162375412 -19.928786245523924 28.81661426650658 3.28285820669012 40.29398865882453 -44.15500377161663 0.0 7.951386703658794e-16 0.0 4.36945329596692 25.168390358435747 -1.5672013098549888 1.2025327889552393e-07 -1.2058369218866095e-06 2.1804788153036876 -2.9814811583360674 4.400016405547405 173.5296216857393 131.33374267320212 -40.20616975563838 -138.37474210746927 -6.4051297907033835e-06 -3.604529801878391e-06 17.815650976466017 6.3611093629270335e-15 0.0 0.0 -148.02748729426807 -39.69926294346352 130.2307863751138 4.207158799740684e-06 3.451374956304349e-07 -22.393190977167606 3.1805546814635164e-15 -1.7655625192200634e-31 -6.361109362927033e-15
0.00043282334809191525 44.779170989990234 -0.0013181247049942613 2.3583268600324607 -0.9836641561062172 -13.153678598796331 -64.3508174382412 -17.76088670922995 -33.628861511865246 -9.815078822829792 51.624967530959694 64.82538889477418 3.1805546814635164e-15 0.0 0.0 59.822977226827106 -21.500773026242793 31.23311012779206 5.969477512157268 43.43254706256235 -48.56298335075153 -5.517382872562698e-33 7.951386703658791e-16 7.951386703658791e-16 4.280647887165035 25.374330007146494 -1.4107038110348271 -2.0813448376166585e-07 -5.011627818299568e-07 1.718185321620326 -3.1388841331115214 4.911749482051999 173.59970304813345 131.453486752731 -39.39767451812867 -138.1146374349385 -5.5736954564154545e-06 -3.948147944653952e-06 18.80580426597252 -6.3611093629270335e-15 0.0 0.0 -143.62896186207098 -36.42293380949335 133.12550843410565 3.9103612676912933e-07 2.9046628450224016e-06 -24.723452188006934 1.5902773407317584e-15 0.0 0.0
